# Blender 4.4.0
# www.blender.org
mtllib OverCrossIslandMesh.mtl
o Cube
v -1.000000 -1.000000 0.000000
v -1.000000 1.000000 0.000000
v 1.000000 -1.000000 0.000000
v 1.000000 1.000000 0.000000
v 0.000000 -1.000000 0.000000
v 0.000000 1.000000 0.000000
vn -0.0000 -0.0000 1.0000
vt 0.808643 0.054734
vt 0.808643 0.424775
vt 0.093335 0.424775
vt 0.093335 0.054734
vt 0.891900 0.092450
vt 0.891900 0.462492
vt 0.176592 0.462492
vt 0.176592 0.092450
s 0
usemtl MatA
f 5/1/1 6/2/1 2/3/1 1/4/1
usemtl MatB
f 3/5/1 4/6/1 6/7/1 5/8/1
